<svg width="100" height="100" viewBox="0 0 100 100" fill="none" xmlns="http://www.w3.org/2000/svg">
<path d="M44.7219 0.080574C41.8065 0.451553 36.8582 1.6175 33.7287 2.70395C24.7683 5.75131 16.3696 11.634 10.9666 18.6032C3.55756 28.1958 -0.0265989 38.2388 0.000148586 49.4478C0.000148586 62.2202 4.01227 73.1907 12.1168 82.6243C18.7234 90.3619 28.8072 96.4037 38.8375 98.709C41.218 99.2655 47.1292 100.14 47.3165 99.981C47.3699 99.928 47.8247 99.292 48.3329 98.5766C49.269 97.2781 49.269 97.2781 48.6806 97.0926C48.3329 97.0131 47.4502 96.9336 46.6745 96.9071C44.2672 96.8541 39.2922 95.8737 35.8685 94.7607C28.5932 92.4023 22.6018 88.719 17.0383 83.2338C11.9295 78.199 8.58609 73.1377 6.07183 66.725C2.30043 57 1.97946 45.155 5.2694 35.2975C11.983 15.2379 31.2947 1.98849 52.4787 2.88944C70.239 3.65791 85.8596 13.9129 93.5361 29.8917L94.6328 32.1706L95.6492 30.6072L96.6656 29.0437L95.2747 26.4999C88.1064 13.1975 75.642 3.94939 60.6634 0.796043C57.855 0.213066 56.6246 0.107071 51.5426 0.0275726C48.3061 -0.0254211 45.2301 0.00107574 44.7219 0.080574Z" fill="white"/>
<path d="M50.9809 12.0315C49.055 12.694 47.1827 14.1514 45.7918 16.0593C44.0533 18.4442 40.1481 21.7566 38.2223 22.4985C36.457 23.161 32.8996 25.9699 32.1774 27.2683C31.9366 27.6923 31.0272 29.1497 30.1446 30.4747C28.6467 32.7271 28.4595 32.9125 27.1488 33.3365C24.3136 34.2375 22.5215 35.7744 22.5215 37.3378C22.5215 37.8148 23.2972 38.1063 24.3404 38.0533C24.7416 38.0268 25.1695 38.0003 25.2765 38.0268C25.4103 38.0533 24.5543 39.2723 23.3775 40.7562C22.2273 42.2666 21.1307 43.7506 20.9702 44.0685C20.0875 45.685 21.2644 46.0029 22.361 44.466C23.217 43.2206 24.6613 41.8161 24.6613 42.2136C24.6613 42.6376 23.003 44.731 19.5793 48.6263C16.2894 52.3627 13.5344 56.364 13.2669 57.8479C13.1599 58.3249 13.1332 58.7754 13.1867 58.8284C13.2402 58.8814 14.3635 58.8019 15.6474 58.6429L18.0012 58.3779L19.5258 56.682C25.437 50.0308 26.8814 48.5203 26.9884 48.8383C27.0419 48.9973 26.1859 50.7727 25.116 52.7866C23.1902 56.311 23.0565 56.523 21.3446 57.6889C18.7769 59.4643 18.4559 59.7823 18.8036 60.2328C18.9641 60.4183 19.2583 60.5773 19.4456 60.5773C20.3015 60.5773 23.3775 58.9344 24.3404 57.9539C26.0522 56.205 26.3999 56.5495 25.4638 59.0404C25.1695 59.8088 24.5811 61.6902 24.1264 63.2272C23.6449 64.7641 22.9495 66.619 22.5215 67.3345C22.0936 68.0764 21.3981 70.0374 20.9434 71.7068C20.4887 73.3762 19.7665 75.7081 19.2851 76.874C18.028 80.1069 18.028 80.1334 19.1246 80.5839C19.6596 80.7959 20.2747 80.9019 20.4887 80.8224C20.7562 80.7164 20.8899 80.8754 20.9702 81.2993C21.0237 81.7498 21.2109 81.9088 21.7191 81.9088C22.2808 81.9088 22.5215 81.6173 23.2972 79.9744C23.8054 78.9409 24.3136 78.0665 24.3939 78.0665C24.5008 78.0665 24.9556 78.676 25.4103 79.3914C26.1859 80.6104 26.3197 80.7164 27.2558 80.7164C27.8175 80.7164 28.4595 80.5574 28.7002 80.3719C29.1817 80.0274 30.0108 78.5435 30.0108 78.0665C30.0108 77.881 30.1981 77.351 30.4388 76.8475C30.7598 76.2116 31.054 75.9466 31.5087 75.9466C31.8832 75.9466 32.3914 75.6021 32.8193 75.0456C33.5682 74.0652 33.702 73.1377 34.9591 60.6038C35.1998 58.2189 35.4673 56.099 35.5476 55.9135C35.6278 55.7015 36.0558 55.5425 36.564 55.5425C37.0454 55.5425 38.1153 55.304 38.9177 54.986L40.3889 54.4296L41.5657 55.092C42.1809 55.4365 43.4381 55.887 44.3207 56.0725C46.0326 56.417 51.8368 59.1464 53.9766 60.5773C54.6988 61.0808 56.1966 62.3792 57.2933 63.5187C59.3261 65.5591 61.0112 66.6455 63.4184 67.361C64.0871 67.573 64.943 67.732 65.3175 67.732C65.8792 67.732 65.7455 67.5995 64.6488 66.99C62.2683 65.6916 60.289 64.0486 58.4434 61.8757C57.1328 60.3388 56.1164 59.4378 54.6453 58.5369C53.5219 57.8744 52.1845 56.9999 51.6495 56.576C51.0878 56.152 49.5632 55.251 48.1991 54.5886C46.835 53.9261 45.8186 53.3166 45.8988 53.2371C46.0861 53.0516 48.1189 52.2832 50.8739 51.3822C52.7462 50.7727 53.1741 50.7462 57.2933 50.8257C59.7273 50.8787 61.9473 51.0377 62.2148 51.1437C62.6428 51.3557 62.6963 51.3027 62.5893 50.8522C62.4555 50.3488 62.6428 50.2958 65.692 49.9778C69.4901 49.6068 70.0786 49.4213 71.8439 48.0434C74.8664 45.7115 76.0967 45.42 82.5696 45.4465C86.8225 45.473 88.1331 45.3935 90.6741 44.9165C92.4662 44.5455 93.5629 44.2275 93.3489 44.1215C93.1349 44.0155 92.493 44.0155 91.9045 44.1745C90.7276 44.4395 81.0985 44.201 81.0985 43.883C81.0985 43.7771 81.4462 43.5386 81.9009 43.3531C82.3289 43.1676 82.8371 42.8496 83.0243 42.6111C83.3186 42.2666 83.2918 42.2136 82.7034 42.3991C82.3289 42.4786 80.9648 42.7701 79.6274 42.9821C75.963 43.6446 72.7266 44.9695 70.5333 46.7714C69.8111 47.3544 68.8214 48.0434 68.3667 48.2553C67.4573 48.6793 61.5729 49.2623 60.8774 48.9973C60.3157 48.7853 62.295 46.7714 64.2476 45.632C66.4944 44.2805 71.1217 43.0086 73.7965 42.9821C76.177 42.9556 76.7119 42.6641 74.9466 42.3991C74.3582 42.2931 73.7965 42.1076 73.7162 41.9751C73.4487 41.5247 75.0268 40.1467 76.6852 39.3253C78.6378 38.3978 80.6171 37.2318 80.5101 37.0994C80.4031 37.0199 79.039 37.4703 77.8888 38.0003C77.5144 38.1593 76.5782 38.4243 75.7758 38.5833C74.2779 38.8748 73.101 39.4577 71.4427 40.7562C70.9345 41.1802 69.3831 41.8691 68.019 42.3196C64.5953 43.4326 62.7497 44.2805 61.4659 45.314C59.5401 46.8774 56.2769 48.1229 53.0939 48.4938C51.6763 48.6793 45.1767 50.5077 44.2137 51.0112C43.1973 51.5677 42.5821 51.3557 42.1542 50.3223C41.9135 49.7923 41.8065 49.1033 41.86 48.8118C41.9402 48.4938 42.1274 47.7784 42.2879 47.1689C42.4484 46.5859 42.9834 45.3935 43.5183 44.5455C44.0265 43.6976 44.4545 42.8496 44.4545 42.6641C44.4545 42.2136 46.2466 40.7032 47.2897 40.2792C47.7712 40.0672 48.2259 39.8022 48.3061 39.6697C48.3863 39.5637 49.1353 39.1133 49.9377 38.7158C52.0775 37.6823 53.2811 35.9864 54.2975 32.5681C54.7523 31.0841 55.2605 29.6002 55.4477 29.2557C55.6617 28.8847 55.8756 27.2153 55.9559 25.0689C56.1431 20.8556 56.4373 20.1401 58.4969 18.9742C61.0112 17.5697 64.3546 17.5962 66.0129 19.0272L66.9224 19.8221V19.0537C66.9224 17.8082 65.6385 15.5558 64.4081 14.6814C62.6695 13.4359 61.5996 13.0915 59.1656 13.012C57.3468 12.9325 56.6246 12.8 55.5814 12.2435C54.0568 11.4485 52.8799 11.3955 50.9809 12.0315ZM40.0411 51.0377C40.3621 52.5482 39.319 53.3961 38.2491 52.4422C37.5536 51.8062 37.6606 51.2497 38.6503 50.6137C39.6667 49.9513 39.8004 49.9778 40.0411 51.0377ZM27.2291 52.5217C27.1488 52.7601 26.9884 53.2371 26.9081 53.5816C26.8279 53.9261 26.5871 54.2176 26.3732 54.2176C25.865 54.2176 25.8917 53.7936 26.4534 52.8661C26.9349 52.0447 27.4966 51.8062 27.2291 52.5217Z" fill="white"/>
<path d="M93.1348 40.2527C93.1348 40.4382 93.6162 40.7826 94.2047 40.9681C94.7931 41.1536 95.2746 41.3921 95.2746 41.4981C95.2746 41.6041 94.9803 41.9486 94.6059 42.2931C94.2314 42.6376 93.9372 43.088 93.9372 43.3265C93.9372 43.565 94.3651 43.3265 95.0873 42.6376C95.9165 41.8161 96.5049 41.4716 97.3609 41.3391C98.4308 41.1801 98.9657 40.8356 98.6715 40.5177C98.5913 40.4382 97.9493 40.5177 97.2806 40.6502C96.3445 40.8356 95.8095 40.8356 95.1676 40.5707C93.5627 39.9082 93.1348 39.8552 93.1348 40.2527Z" fill="white"/>
<path d="M95.1676 47.3544C94.5792 47.8049 94.4722 48.0964 94.4722 49.2093V50.5078L97.0934 50.3488C98.511 50.2428 99.7949 50.0838 99.9287 49.9513C100.25 49.6598 99.4205 49.3418 98.7518 49.5273C98.2168 49.6598 97.9493 49.2623 97.9493 48.2819C97.9493 47.5399 97.1737 46.7979 96.4247 46.7979C96.1305 46.7979 95.5688 47.0364 95.1676 47.3544ZM97.2539 48.0169C97.3341 48.2554 97.4144 48.7323 97.4144 49.0768C97.4144 49.6333 97.3074 49.7128 96.3712 49.7128C95.4886 49.7128 95.3281 49.6068 95.2211 49.0768C95.1409 48.7323 95.1944 48.2554 95.3281 48.0169C95.6491 47.4604 97.0399 47.4604 97.2539 48.0169Z" fill="white"/>
<path d="M95.2747 60.6303L94.9537 61.9022H93.5629H92.1987L93.3489 62.6442C94.5525 63.3861 94.5525 63.4126 94.0443 65.3471L93.8571 66.0095L94.499 65.4795C95.9434 64.2606 95.9166 64.2606 96.9598 64.9761C98.0564 65.6915 98.1367 65.5855 97.5482 64.2076L97.147 63.2801L98.1634 62.4587L99.1531 61.6637L97.8692 61.6372C96.6121 61.6372 96.5853 61.6107 96.1039 60.4978L95.5957 59.3848L95.2747 60.6303Z" fill="#A60311"/>
<path d="M87.812 74.1977C87.1433 75.2576 87.1165 75.7611 87.6782 76.3176C88.2934 76.9536 89.3098 76.8476 89.7913 76.1056C90.9414 74.3567 92.5998 75.3901 91.5299 77.1921C90.9414 78.1725 90.8612 78.5965 91.2356 78.5965C91.6369 78.5965 92.5998 76.8741 92.5998 76.1586C92.5998 74.5952 90.7274 74.1182 89.5773 75.4166C89.1761 75.8406 88.7214 76.2116 88.5876 76.2116C88.0527 76.2116 87.9725 75.3106 88.4004 74.5687C89.2563 73.0847 88.7214 72.7403 87.812 74.1977Z" fill="white"/>
<path d="M84.4688 78.8084C84.3886 78.9409 84.977 79.6829 85.7795 80.4514C87.2773 81.9088 87.518 82.4653 86.9296 83.0483C86.3412 83.6312 85.6992 83.3927 84.2281 82.0413C83.2384 81.1668 82.6767 80.7959 82.543 81.0078C82.329 81.3788 84.977 83.7902 85.8864 84.0287C86.6354 84.2142 87.6785 83.6047 87.9193 82.8363C87.9995 82.5448 87.9193 81.9883 87.732 81.6173C87.3041 80.7429 84.6828 78.4905 84.4688 78.8084Z" fill="white"/>
<path d="M79.8948 83.6312C79.8145 83.8697 80.0552 84.7972 80.4297 85.7246C80.8042 86.6786 81.0449 87.4735 80.9914 87.553C80.9112 87.606 80.5367 87.4205 80.1087 87.1556C78.3434 85.9366 77.3805 85.4861 77.22 85.7511C76.9793 86.1221 81.6066 89.0635 81.9276 88.7455C82.1683 88.507 80.9914 84.9032 80.296 83.6577C80.082 83.2867 80.0552 83.2867 79.8948 83.6312Z" fill="white"/>
<path d="M71.9511 89.0105L70.9614 89.5935L71.5766 90.6535C71.8976 91.2364 72.5128 92.2699 72.914 92.9854C73.6897 94.3103 74.4386 94.4958 73.7432 93.1708C73.3954 92.5084 73.3954 92.4024 73.7699 92.0844C74.1444 91.7929 74.3584 91.8194 75.2143 92.2964C76.5517 93.0119 77.1936 92.6674 75.9632 91.8989C75.1608 91.3954 75.0538 91.2364 75.1608 90.4415C75.241 89.6995 75.134 89.4345 74.5456 88.9575C73.6094 88.2421 73.1815 88.2686 71.9511 89.0105ZM74.4119 89.7525C74.7596 90.3885 74.7596 90.415 74.0909 91.0509C73.2885 91.7664 72.8872 91.7134 72.4058 90.786C71.8976 89.779 71.8708 89.8055 72.7268 89.355C73.5559 88.931 74.0374 89.037 74.4119 89.7525Z" fill="white"/>
<path d="M65.3444 92.0048C64.8094 92.4023 64.7292 92.6143 64.8362 93.7538C65.0769 96.1386 66.762 97.4901 68.2063 96.4301C69.1158 95.7677 69.2495 94.7872 68.661 93.2503C68.0191 91.5809 66.6817 91.0774 65.3444 92.0048ZM67.0562 92.2698C67.6714 92.5083 68.2598 93.7803 68.2598 94.8667C68.2598 95.6617 68.1528 95.8472 67.5644 95.9797C66.6817 96.1916 65.9061 95.4762 65.5851 94.1247C65.3979 93.3033 65.4513 93.0383 65.8793 92.6143C66.441 92.0578 66.441 92.0578 67.0562 92.2698Z" fill="white"/>
<path d="M58.7109 93.7007C57.855 94.0452 57.4806 94.9462 57.6678 96.1121C58.0155 98.338 58.9517 99.133 60.6903 98.6825C61.6264 98.444 61.9741 98.0995 61.7067 97.6756C61.5997 97.4901 61.3322 97.5431 60.9577 97.8081C60.2356 98.3115 59.3261 98.3115 58.8982 97.8081C58.4167 97.2251 58.2295 95.1052 58.6307 94.6282C58.8179 94.3897 59.4064 94.2307 60.0216 94.2307C60.7438 94.2307 61.038 94.1247 60.9845 93.8862C60.8507 93.4888 59.5134 93.3828 58.7109 93.7007Z" fill="white"/>
</svg>
